# xmcd
#
# Track frame offsets:
#	150
#	21390
#	42122
#	66547
#	86247
#	109015
#	130130
#	154420
#	174920
#	195745
#
# Disc length: 2839 seconds
#
# Revision: 0
# Processed by: cddbd v1.5.2PL0 Copyright (c) Steve Scherf et al.
# Submitted via: EasyCDDAExtractor 16.0.9.1
#
DISCID=8a0b150a
DTITLE=Tô Chấn Phong - KH34: Kỷ Niệm Nào Vội Tan
DYEAR=1996
DGENRE=Pop
TTITLE0=Tô Chấn Phong - Kỷ Niệm Nào Vội Tan
TTITLE1=Tô Chấn Phong - Con Tim Thật Thà
TTITLE2=Tô Chấn Phong - Có Những Tàn Phai
TTITLE3=Tô Chấn Phong and Khánh Hà - Lời Biển Gọi
TTITLE4=Tô Chấn Phong - Quán Cà Phê Vắng
TTITLE5=Tô Chấn Phong - Tình Mong Manh
TTITLE6=Tô Chấn Phong and Thanh Thủy - Bây Giờ Tháng Mấy
TTITLE7=Tô Chấn Phong - Bài Không Tên Số 4
TTITLE8=Ngọc Hương - Tuổi Chớm Buồn
TTITLE9=Tô Chấn Phong - Yêu Em Từ Độ Mắt Trao
EXTD=
EXTT0=
EXTT1=
EXTT2=
EXTT3=
EXTT4=
EXTT5=
EXTT6=
EXTT7=
EXTT8=
EXTT9=
PLAYORDER=
